<svg width="729" height="699" viewBox="0 0 729 699" fill="none" xmlns="http://www.w3.org/2000/svg">
<g clip-path="url(#clip0_1_2858)">
<path d="M398.934 86.6708V145.241L464.615 146.116V89.4182L398.934 86.6708Z" fill="#F3EAD8"/>
<path d="M450.712 112.089L417.686 111.743V144.813H450.712V112.089Z" fill="#3F3F57"/>
<path d="M398.935 86.6708H335.391V145.261H398.935V86.6708Z" fill="url(#paint0_linear_1_2858)"/>
<path d="M378.522 109.586H354.531V144.691H378.522V109.586Z" fill="#3F3F57"/>
<path d="M314.214 81.3998L339.171 94.282H398.951C398.951 94.282 474.415 103.135 490.504 88.543C490.504 88.543 453.391 92.2062 398.239 73.4833C373.418 84.7577 345.189 86.8742 314.214 81.3998Z" fill="#3F3F57"/>
<path d="M440.777 24.3356C440.688 23.9082 440.5 23.52 440.234 23.2163L439.81 22.8093C439.479 22.5835 439.106 22.4643 438.725 22.4633L437.369 22.3412C437.029 18.4116 435.711 14.6958 433.588 11.6773C433.391 11.4404 433.157 11.2524 432.9 11.1242C432.642 10.996 432.366 10.9299 432.087 10.9299C431.809 10.9299 431.533 10.996 431.275 11.1242C431.018 11.2524 430.784 11.4404 430.587 11.6773C430.197 12.1597 429.978 12.8058 429.978 13.4784C429.978 14.1509 430.197 14.797 430.587 15.2794C431.985 17.3301 432.851 19.8277 433.079 22.4633H431.825C431.26 22.473 430.72 22.7425 430.316 23.2163C429.919 23.6914 429.694 24.3346 429.688 25.0072C429.698 25.6847 429.922 26.3323 430.316 26.8184C430.718 27.2958 431.259 27.566 431.825 27.5714H432.774C432.294 29.7933 431.369 31.8405 430.078 33.5342C428.23 35.9357 431.231 39.6395 433.096 37.1364C435.191 34.4282 436.602 31.0619 437.165 27.429L438.725 27.5714C439.014 27.5918 439.302 27.5142 439.556 27.3475C439.819 27.2505 440.053 27.0672 440.234 26.8184C440.613 26.3291 440.835 25.6947 440.861 25.0275C440.776 24.8037 440.777 24.5595 440.777 24.3356Z" fill="#3F3F57"/>
<path d="M376.351 14.6079H373.825C373.745 10.9556 374.359 7.32941 375.622 4.00503C375.786 3.71448 375.899 3.38649 375.954 3.04139C376.008 2.69629 376.003 2.34145 375.938 1.99886C375.874 1.65627 375.751 1.33323 375.579 1.04979C375.406 0.766361 375.186 0.528573 374.934 0.351162C374.681 0.17375 374.401 0.0604959 374.11 0.0184429C373.82 -0.0236101 373.525 0.00643716 373.245 0.106696C372.964 0.206955 372.704 0.375286 372.48 0.601279C372.256 0.827272 372.073 1.1061 371.943 1.42046C370.316 5.53799 369.503 10.0513 369.569 14.6079H368.603C368.307 14.5762 368.01 14.6187 367.729 14.7327C367.448 14.8466 367.19 15.0295 366.971 15.2698C366.752 15.51 366.577 15.8024 366.458 16.1281C366.338 16.4539 366.276 16.806 366.276 17.1619C366.276 17.5179 366.338 17.87 366.458 18.1957C366.577 18.5215 366.752 18.8138 366.971 19.0541C367.19 19.2943 367.448 19.4773 367.729 19.5912C368.01 19.7052 368.307 19.7477 368.603 19.716H370.027C370.399 22.0618 371.008 24.3444 371.841 26.5132C372.127 27.0922 372.592 27.5127 373.134 27.6841C373.677 27.8554 374.254 27.7638 374.74 27.429C375.22 27.0779 375.568 26.5167 375.711 25.8638C375.853 25.2108 375.779 24.5171 375.503 23.9286C374.997 22.573 374.599 21.1624 374.316 19.716H376.351C376.646 19.7477 376.944 19.7052 377.225 19.5912C377.506 19.4773 377.764 19.2943 377.983 19.0541C378.202 18.8138 378.376 18.5215 378.496 18.1957C378.615 17.87 378.677 17.5179 378.677 17.1619C378.677 16.806 378.615 16.4539 378.496 16.1281C378.376 15.8024 378.202 15.51 377.983 15.2698C377.764 15.0295 377.506 14.8466 377.225 14.7327C376.944 14.6187 376.646 14.5762 376.351 14.6079Z" fill="#3F3F57"/>
<path d="M490.589 88.5429C446.016 93.8341 398.324 73.4831 398.324 73.4831C361.601 91.5548 314.214 81.3997 314.214 81.3997V75.0298C337.441 74.6635 371.96 22.6667 371.96 22.6667L432.521 32.0893C440.371 58.0368 490.589 88.5429 490.589 88.5429Z" fill="url(#paint1_linear_1_2858)"/>
<path d="M370.705 30.5425C370.705 30.5425 379.538 53.2338 389.88 68.782C372.686 72.8037 355.033 73.1207 337.746 69.7181C337.746 69.7181 364.737 41.0843 370.705 30.5425Z" fill="url(#paint2_linear_1_2858)"/>
<path d="M490.588 88.5431C446.015 93.8344 398.323 73.4834 398.323 73.4834C387.462 58.2045 378.575 41.054 371.959 22.6059L432.52 32.0284C440.369 58.037 490.588 88.5431 490.588 88.5431Z" fill="url(#paint3_linear_1_2858)"/>
<path d="M384.216 176.113H268.334C300.072 170.008 307.956 160.423 322.333 143.674H398.271C398.344 144.016 398.4 144.362 398.441 144.712C399.102 149.311 400.645 167.851 384.216 176.113Z" fill="url(#paint4_linear_1_2858)"/>
<path d="M525.684 182.219L384.218 176.113C400.646 167.851 399.104 149.311 398.442 144.712H476.754C480.315 174.607 525.684 182.219 525.684 182.219Z" fill="#3F3F57"/>
<path d="M384.216 176.113H268.334V180.713H384.216V176.113Z" fill="url(#paint5_linear_1_2858)"/>
<path d="M525.684 186.818L384.218 180.712V176.113L525.684 182.218V186.818Z" fill="#3F3F57"/>
<path d="M394.611 217.283L276.202 215.248V180.713H394.611V217.283Z" fill="url(#paint6_linear_1_2858)"/>
<path d="M519.003 225.424L394.609 217.283V180.713L519.003 186.818V225.424Z" fill="#F3EAD8"/>
<path d="M393.44 291.564H228.391V250.944L394.61 217.283L393.44 291.564Z" fill="url(#paint7_linear_1_2858)"/>
<path d="M567.17 303.327L393.439 291.564L394.609 217.283L566.814 263.154L567.17 303.327Z" fill="#F3EAD8"/>
<path d="M389.27 374.413L174.748 372.928V332.307L389.27 305.302V374.413Z" fill="url(#paint8_linear_1_2858)"/>
<path d="M604.537 381.699L389.269 374.413V305.301L604.537 339.043V381.699Z" fill="#F3EAD8"/>
<g style="mix-blend-mode:multiply">
<path d="M474.668 364.136L407.359 362.101V342.483L474.668 344.518V364.136Z" fill="#F3EAD8"/>
</g>
<g style="mix-blend-mode:multiply">
<path d="M595.298 368.084L527.972 366.049V346.451L595.298 348.486V368.084Z" fill="#F3EAD8"/>
</g>
<path d="M383.811 465.057L151.877 458.728V401.297L383.811 384.711V465.057Z" fill="url(#paint9_linear_1_2858)"/>
<path d="M616.542 467.173L383.811 465.057V384.711L616.542 401.297V467.173Z" fill="#F3EAD8"/>
<path d="M276.201 215.248L394.609 217.283C394.609 217.283 402.391 252.063 377.367 253.426H205.603V247.687C205.603 247.687 257.924 242.213 276.201 215.248Z" fill="url(#paint10_linear_1_2858)"/>
<path d="M378.249 253.427V258.026C378.249 258.026 401.086 259.145 396.899 217.629H392.677C392.677 217.629 395.203 250.72 378.249 253.427Z" fill="#3F3F57"/>
<path d="M519.004 225.424L396.933 217.283C396.933 217.283 392.847 251.88 413.532 253.426L586.177 265.637V259.898C586.177 259.898 537.416 252.389 519.004 225.424Z" fill="#3F3F57"/>
<path d="M414.905 253.427V258.026C414.905 258.026 392.067 259.145 396.255 217.629H400.494C400.494 217.629 397.933 250.72 414.905 253.427Z" fill="url(#paint11_linear_1_2858)"/>
<path d="M586.109 270.237L413.464 258.026V253.427L586.109 265.637V270.237Z" fill="#3F3F57"/>
<path d="M378.249 253.427H205.603V258.026H378.249V253.427Z" fill="url(#paint12_linear_1_2858)"/>
<path d="M229.256 289.529L388.897 291.564C388.897 291.564 396.679 326.365 371.638 327.708H167.136V321.969C167.136 321.969 210.963 316.515 229.256 289.529Z" fill="url(#paint13_linear_1_2858)"/>
<path d="M371.654 327.26V331.859C371.654 331.859 394.492 332.979 390.304 291.463H386.065C386.065 291.463 388.626 324.553 371.654 327.26Z" fill="#3F3F57"/>
<path d="M567.17 301.292L390.287 291.116C390.287 291.116 386.201 325.713 406.885 327.26L621.543 337.435V331.696C621.543 331.696 577.53 331.757 567.17 301.292Z" fill="#3F3F57"/>
<path d="M408.309 327.26V331.859C408.309 331.859 385.472 332.979 389.659 291.463H393.881C393.881 291.463 391.355 324.553 408.309 327.26Z" fill="url(#paint14_linear_1_2858)"/>
<path d="M621.544 342.035L406.869 331.86V327.26L621.544 337.436V342.035Z" fill="#3F3F57"/>
<path d="M371.654 327.26H166.253V331.86H371.654V327.26Z" fill="#3F3F57"/>
<path d="M174.766 369.529L388.034 370.384C388.034 370.384 395.816 405.163 370.774 406.527L112.646 407.707V401.968C112.646 401.968 156.472 396.575 174.766 369.529Z" fill="url(#paint15_linear_1_2858)"/>
<path d="M371.654 406.527V411.126C371.654 411.126 394.492 412.246 390.304 370.73H386.065C386.065 370.73 388.626 403.82 371.654 406.527Z" fill="#3F3F57"/>
<path d="M604.538 378.097L390.287 370.384C390.287 370.384 386.201 404.98 406.885 406.527L658.91 414.24V408.501C658.91 408.501 614.897 408.562 604.538 378.097Z" fill="#3F3F57"/>
<path d="M408.309 406.527V411.126C408.309 411.126 385.472 412.246 389.659 370.73H393.881C393.881 370.73 391.355 403.821 408.309 406.527Z" fill="url(#paint16_linear_1_2858)"/>
<path d="M658.911 418.839L406.869 411.126V406.527L658.911 414.24V418.839Z" fill="#3F3F57"/>
<path d="M371.653 411.126L112.626 412.327V407.728L371.653 406.527V411.126Z" fill="#3F3F57"/>
<g style="mix-blend-mode:multiply">
<path d="M457.816 425.27H448.627V448.999H457.816V425.27Z" fill="#F3EAD8"/>
</g>
<path d="M457.816 429.381H450.221V449H457.816V429.381Z" fill="#3F3F57"/>
<g style="mix-blend-mode:multiply">
<path d="M527.311 425.27H518.122V449H527.311V425.27Z" fill="#F3EAD8"/>
</g>
<path d="M527.311 429.381H519.716V449H527.311V429.381Z" fill="#3F3F57"/>
<g style="mix-blend-mode:multiply">
<path d="M209.861 425.27H200.672V449H209.861V425.27Z" fill="#F3EAD8"/>
</g>
<path d="M209.859 429.381H202.264V449H209.859V429.381Z" fill="#3F3F57"/>
<g style="mix-blend-mode:multiply">
<path d="M305.278 425.27H296.089V449H305.278V425.27Z" fill="#F3EAD8"/>
</g>
<path d="M305.279 429.381H297.683V449H305.279V429.381Z" fill="#3F3F57"/>
<g style="mix-blend-mode:multiply">
<path d="M338.17 425.27H328.98V448.999H338.17V425.27Z" fill="#F3EAD8"/>
</g>
<path d="M338.171 429.381H330.575V449H338.171V429.381Z" fill="#3F3F57"/>
<g style="mix-blend-mode:multiply">
<path d="M469.21 268.221H460.021V291.951H469.21V268.221Z" fill="#F3EAD8"/>
</g>
<path d="M469.208 272.333H461.612V291.951H469.208V272.333Z" fill="#3F3F57"/>
<g style="mix-blend-mode:multiply">
<path d="M263.3 262.096H254.11V285.826H263.3V262.096Z" fill="#F3EAD8"/>
</g>
<path d="M263.3 266.207H255.704V285.826H263.3V266.207Z" fill="#3F3F57"/>
<g style="mix-blend-mode:multiply">
<path d="M296.191 262.096H287.002V285.826H296.191V262.096Z" fill="#F3EAD8"/>
</g>
<path d="M296.191 266.207H288.596V285.826H296.191V266.207Z" fill="#3F3F57"/>
<g style="mix-blend-mode:multiply">
<path d="M314.418 187.123H305.229V210.852H314.418V187.123Z" fill="#F3EAD8"/>
</g>
<path d="M314.416 191.254H306.82V210.873H314.416V191.254Z" fill="#3F3F57"/>
<g style="mix-blend-mode:multiply">
<path d="M362.533 187.123H353.344V210.852H362.533V187.123Z" fill="#F3EAD8"/>
</g>
<path d="M362.532 191.254H354.937V210.873H362.532V191.254Z" fill="#3F3F57"/>
<g style="mix-blend-mode:multiply">
<path d="M444.812 189.158H435.623V212.888H444.812V189.158Z" fill="#F3EAD8"/>
</g>
<path d="M444.812 193.29H437.217V212.908H444.812V193.29Z" fill="#3F3F57"/>
<g style="mix-blend-mode:multiply">
<path d="M492.928 189.158H483.739V212.888H492.928V189.158Z" fill="#F3EAD8"/>
</g>
<path d="M492.912 193.29H485.316V212.908H492.912V193.29Z" fill="#3F3F57"/>
<path d="M350.224 343.5H282.916V363.098H350.224V343.5Z" fill="#F3EAD8"/>
<path d="M379.08 264.151H311.771V283.749H379.08V264.151Z" fill="#F3EAD8"/>
<path d="M502.795 320.728L556.286 322.763V278.092L529.549 241.277L502.795 278.092V320.728Z" fill="url(#paint17_linear_1_2858)"/>
<path d="M542.977 283.037H516.139V298.015H542.977V283.037Z" fill="#F3EAD8"/>
<path d="M448.83 328.949H502.795V278.601H448.83V328.949Z" fill="#F3EAD8"/>
<path d="M528.533 234.195C530.093 234.317 531.11 232.587 531.517 230.898C531.747 229.963 531.895 229.001 531.958 228.029C532.09 227.084 531.965 226.114 531.602 225.261C531.548 225.104 531.543 224.93 531.587 224.769C531.631 224.608 531.721 224.471 531.842 224.383C531.962 224.295 532.105 224.261 532.244 224.287C532.384 224.314 532.51 224.399 532.602 224.528C533.074 225.485 533.377 226.547 533.494 227.649C533.61 228.752 533.538 229.871 533.28 230.939C532.812 232.875 531.728 234.513 530.262 235.497C530.178 235.567 530.077 235.605 529.974 235.605C529.871 235.605 529.771 235.567 529.686 235.497C529.315 235.649 528.925 235.718 528.533 235.701C527.804 235.579 527.804 234.134 528.533 234.195Z" fill="#3F3F57"/>
<path d="M475.21 225.627C475.25 225.449 475.348 225.298 475.482 225.206C475.615 225.114 475.774 225.09 475.922 225.139C476.07 225.187 476.197 225.305 476.273 225.465C476.349 225.625 476.369 225.815 476.329 225.994C475.834 227.678 475.723 229.491 476.007 231.244C476.12 231.887 476.361 232.487 476.709 232.994C477.058 233.501 477.503 233.899 478.007 234.154C478.685 234.419 478.431 235.701 477.787 235.538C477.774 235.643 477.738 235.743 477.684 235.827C477.63 235.911 477.559 235.978 477.478 236.021C477.397 236.063 477.308 236.081 477.22 236.071C477.131 236.061 477.047 236.025 476.973 235.966C475.771 235.027 474.915 233.57 474.583 231.895C474.339 229.776 474.555 227.617 475.21 225.627Z" fill="#3F3F57"/>
<path d="M439.284 283.322V288.125H493.012V283.322C504.778 276.525 529.532 234.073 529.532 234.073H475.804C475.804 234.073 451.05 276.504 439.284 283.322Z" fill="url(#paint18_linear_1_2858)"/>
<path d="M492.996 283.322H439.268V288.125H492.996V283.322Z" fill="url(#paint19_linear_1_2858)"/>
<path d="M493.014 283.322V288.125C507.961 277.495 520.506 262.624 529.55 244.818C529.55 244.818 545.911 275.589 566.104 287.983V283.322C551.082 273.533 529.55 234.093 529.533 234.073C529.516 234.052 504.78 276.505 493.014 283.322Z" fill="#3F3F57"/>
<path d="M422.348 295.349L428.095 331.859L502.813 328.949V320.055C502.813 320.055 457.748 316.148 449.441 295.349H422.348Z" fill="#3F3F57"/>
<path d="M254.163 395.212H200.672V353.085L227.426 316.25L254.163 353.085V395.212Z" fill="url(#paint20_linear_1_2858)"/>
<path d="M213.996 373.009H240.835V358.031H213.996V373.009Z" fill="#F3EAD8"/>
<path d="M308.127 353.594H254.161V403.943H308.127V353.594Z" fill="#F3EAD8"/>
<path d="M228.441 309.168C226.882 309.29 225.864 307.56 225.457 305.871C225.227 304.936 225.08 303.974 225.017 303.002C224.885 302.057 225.009 301.087 225.373 300.234C225.426 300.077 225.431 299.903 225.387 299.742C225.343 299.581 225.253 299.444 225.133 299.356C225.012 299.268 224.87 299.234 224.73 299.261C224.591 299.287 224.464 299.373 224.372 299.501C223.901 300.458 223.597 301.52 223.481 302.622C223.364 303.725 223.437 304.844 223.694 305.912C224.169 307.844 225.251 309.479 226.712 310.471C226.798 310.536 226.898 310.57 227 310.57C227.102 310.57 227.202 310.536 227.289 310.471C227.662 310.604 228.052 310.666 228.441 310.654C229.17 310.552 229.17 309.066 228.441 309.168Z" fill="#3F3F57"/>
<path d="M281.763 300.641C281.742 300.552 281.707 300.47 281.659 300.398C281.611 300.327 281.552 300.267 281.485 300.222C281.418 300.178 281.345 300.15 281.269 300.14C281.193 300.129 281.116 300.137 281.043 300.162C280.969 300.188 280.9 300.23 280.841 300.288C280.781 300.345 280.731 300.416 280.694 300.496C280.657 300.576 280.634 300.664 280.625 300.756C280.616 300.847 280.623 300.939 280.644 301.027C281.139 302.705 281.25 304.511 280.966 306.258C280.853 306.9 280.612 307.501 280.264 308.008C279.915 308.514 279.47 308.912 278.966 309.168C278.287 309.453 278.542 310.714 279.186 310.572C279.202 310.675 279.239 310.772 279.294 310.854C279.349 310.936 279.42 311 279.501 311.041C279.582 311.081 279.67 311.097 279.757 311.086C279.844 311.075 279.928 311.038 280 310.979C281.202 310.04 282.058 308.583 282.39 306.909C282.634 304.789 282.418 302.63 281.763 300.641Z" fill="#3F3F57"/>
<path d="M317.689 358.295V363.098H263.961V358.295C252.195 351.498 227.441 309.066 227.441 309.066H281.169C281.169 309.066 305.923 351.498 317.689 358.295Z" fill="#3F3F57"/>
<path d="M263.962 358.295V363.098C249.015 352.468 236.469 337.597 227.425 319.791C227.425 319.791 211.065 350.562 190.872 362.956V358.295C205.894 348.506 227.425 309.066 227.442 309.066C227.459 309.066 252.196 351.498 263.962 358.295Z" fill="url(#paint21_linear_1_2858)"/>
<path d="M334.626 370.323L335.864 406.527L254.161 403.922V395.029C254.161 395.029 299.226 391.121 307.55 370.323H334.626Z" fill="url(#paint22_linear_1_2858)"/>
<path d="M625.663 451.34H126.987V619.826H625.663V451.34Z" fill="url(#paint23_linear_1_2858)"/>
<path d="M399.103 530.587V619.826L126.529 619.398V515.446L399.103 530.587Z" fill="#3F3F57"/>
<g style="mix-blend-mode:multiply" opacity="0.17">
<path d="M144.738 516.463V619.419L126.529 619.398V515.446L144.738 516.463Z" fill="#3F3F57"/>
</g>
<g style="mix-blend-mode:multiply" opacity="0.17">
<path d="M167.051 619.459L149.249 619.418V516.687L167.051 517.684V619.459Z" fill="#3F3F57"/>
</g>
<g style="mix-blend-mode:multiply" opacity="0.17">
<path d="M188.853 619.48L171.458 619.459V517.928L188.853 518.905V619.48Z" fill="#3F3F57"/>
</g>
<g style="mix-blend-mode:multiply" opacity="0.17">
<path d="M210.147 619.52L193.159 619.5V519.129L210.147 520.085V619.52Z" fill="#3F3F57"/>
</g>
<g style="mix-blend-mode:multiply" opacity="0.17">
<path d="M230.968 619.561L214.353 619.541V520.309L230.968 521.225V619.561Z" fill="#3F3F57"/>
</g>
<g style="mix-blend-mode:multiply" opacity="0.17">
<path d="M251.314 619.582L235.071 619.561V521.47L251.314 522.365V619.582Z" fill="#3F3F57"/>
</g>
<g style="mix-blend-mode:multiply" opacity="0.17">
<path d="M271.217 619.622L255.331 619.602V522.589L271.217 523.464V619.622Z" fill="#3F3F57"/>
</g>
<g style="mix-blend-mode:multiply" opacity="0.17">
<path d="M290.681 619.663L275.15 619.622V523.688L290.681 524.563V619.663Z" fill="#3F3F57"/>
</g>
<g style="mix-blend-mode:multiply" opacity="0.17">
<path d="M309.737 619.683L294.529 619.663V524.766L309.737 525.621V619.683Z" fill="#3F3F57"/>
</g>
<g style="mix-blend-mode:multiply" opacity="0.17">
<path d="M328.371 619.724L313.502 619.683V525.824L328.371 526.659V619.724Z" fill="#3F3F57"/>
</g>
<g style="mix-blend-mode:multiply" opacity="0.17">
<path d="M346.613 619.744L332.066 619.724V526.842L346.613 527.656V619.744Z" fill="#3F3F57"/>
</g>
<g style="mix-blend-mode:multiply" opacity="0.17">
<path d="M364.484 619.764L350.226 619.744V527.859L364.484 528.653V619.764Z" fill="#3F3F57"/>
</g>
<g style="mix-blend-mode:multiply" opacity="0.17">
<path d="M381.98 619.805L368.027 619.785V528.857L381.98 529.63V619.805Z" fill="#3F3F57"/>
</g>
<g style="mix-blend-mode:multiply" opacity="0.17">
<path d="M399.103 530.586V619.826L385.438 619.805V529.833L399.103 530.586Z" fill="#3F3F57"/>
</g>
<path d="M669.608 515.71L667.709 620.172L398.577 619.826V530.668L669.608 515.71Z" fill="#3F3F57"/>
<g style="mix-blend-mode:multiply">
<g style="mix-blend-mode:multiply" opacity="0.42">
<path d="M412.091 529.936L412.006 619.846L398.578 619.826V530.668L412.091 529.936Z" fill="#3F3F57"/>
</g>
<g style="mix-blend-mode:multiply" opacity="0.42">
<path d="M429.146 619.866L415.413 619.846L415.532 529.732L429.333 528.979L429.146 619.866Z" fill="#3F3F57"/>
</g>
<g style="mix-blend-mode:multiply" opacity="0.42">
<path d="M446.643 619.887L432.622 619.867L432.826 528.776L446.949 528.002L446.643 619.887Z" fill="#3F3F57"/>
</g>
<g style="mix-blend-mode:multiply" opacity="0.42">
<path d="M464.53 619.907L450.204 619.887L450.526 527.799L464.954 527.005L464.53 619.907Z" fill="#3F3F57"/>
</g>
<g style="mix-blend-mode:multiply" opacity="0.42">
<path d="M482.823 619.928H468.175L468.599 526.802L483.349 525.988L482.823 619.928Z" fill="#3F3F57"/>
</g>
<g style="mix-blend-mode:multiply" opacity="0.42">
<path d="M501.525 619.968L486.537 619.948L487.097 525.784L502.186 524.949L501.525 619.968Z" fill="#3F3F57"/>
</g>
<g style="mix-blend-mode:multiply" opacity="0.42">
<path d="M520.649 619.989L505.322 619.968L506 524.726L521.429 523.891L520.649 619.989Z" fill="#3F3F57"/>
</g>
<g style="mix-blend-mode:multiply" opacity="0.42">
<path d="M540.197 620.009L524.531 619.989L525.345 523.667L541.129 522.792L540.197 620.009Z" fill="#3F3F57"/>
</g>
<g style="mix-blend-mode:multiply" opacity="0.42">
<path d="M560.22 620.029L544.182 620.009L545.131 522.568L561.288 521.673L560.22 620.029Z" fill="#3F3F57"/>
</g>
<g style="mix-blend-mode:multiply" opacity="0.42">
<path d="M580.702 620.049H564.29L565.392 521.449L581.923 520.533L580.702 620.049Z" fill="#3F3F57"/>
</g>
<g style="mix-blend-mode:multiply" opacity="0.42">
<path d="M601.691 620.09L584.872 620.07L586.127 520.309L603.064 519.373L601.691 620.09Z" fill="#3F3F57"/>
</g>
<g style="mix-blend-mode:multiply" opacity="0.42">
<path d="M623.17 620.111L605.944 620.091L607.352 519.129L624.713 518.173L623.17 620.111Z" fill="#3F3F57"/>
</g>
<g style="mix-blend-mode:multiply" opacity="0.42">
<path d="M645.179 620.152L627.529 620.111L629.106 517.929L646.891 516.952L645.179 620.152Z" fill="#3F3F57"/>
</g>
<g style="mix-blend-mode:multiply" opacity="0.42">
<path d="M669.608 515.71L667.71 620.172L649.653 620.151L651.4 516.707L669.608 515.71Z" fill="#3F3F57"/>
</g>
</g>
<path d="M625.663 451.34H126.987V465.341H625.663V451.34Z" fill="url(#paint24_linear_1_2858)"/>
<path d="M112.458 619.826H33.3154V455.064L72.8867 402.844L112.458 455.064V619.826Z" fill="url(#paint25_linear_1_2858)"/>
<path d="M85.1611 475.374H55.542V491.228H85.1611V475.374Z" fill="#F3EAD8"/>
<path d="M192.312 455.797H112.458V619.826H192.312V455.797Z" fill="#F3EAD8"/>
<path d="M74.3949 392.81C72.0892 392.973 70.5802 390.511 69.9699 388.13C69.6512 386.801 69.4411 385.437 69.3426 384.059C69.1343 382.719 69.3137 381.333 69.8512 380.132C70.4276 379.033 68.9696 378.097 68.3931 379.114C67.6884 380.453 67.2327 381.959 67.0571 383.529C66.8816 385.099 66.9903 386.696 67.3759 388.211C68.1052 390.977 69.705 393.291 71.8348 394.662C71.9651 394.758 72.1147 394.808 72.2672 394.808C72.4197 394.808 72.5693 394.758 72.6995 394.662C73.2482 394.865 73.8214 394.954 74.3949 394.927C75.48 394.764 75.48 392.729 74.3949 392.81Z" fill="#3F3F57"/>
<path d="M153.3 380.702C152.961 379.461 151.35 379.969 151.604 381.231C152.321 383.617 152.479 386.193 152.062 388.68C151.886 389.596 151.525 390.447 151.01 391.157C150.496 391.867 149.844 392.414 149.112 392.75C148.887 392.801 148.689 392.957 148.56 393.185C148.431 393.412 148.383 393.691 148.426 393.961C148.468 394.231 148.599 394.469 148.788 394.624C148.977 394.778 149.209 394.836 149.434 394.785C149.463 394.934 149.521 395.072 149.604 395.189C149.687 395.305 149.791 395.396 149.909 395.454C150.027 395.511 150.155 395.534 150.282 395.521C150.408 395.507 150.531 395.457 150.638 395.375C152.413 394.049 153.681 391.935 154.165 389.494C154.539 386.523 154.241 383.486 153.3 380.702Z" fill="#3F3F57"/>
<path d="M206.47 462.472V469.289H126.971V462.472C109.542 452.825 72.8703 392.627 72.8703 392.627H152.369C152.369 392.627 189.041 452.825 206.47 462.472Z" fill="#3F3F57"/>
<path d="M126.971 462.472V469.289C105.014 454.443 86.4349 433.344 72.8699 407.85C72.8699 407.85 48.6931 451.523 18.8027 469.065V462.472C41.0298 448.592 72.8699 392.648 72.8699 392.627C72.8699 392.607 109.542 452.825 126.971 462.472Z" fill="url(#paint26_linear_1_2858)"/>
<path d="M616.711 619.826H695.87V455.064L656.299 402.844L616.711 455.064V619.826Z" fill="url(#paint27_linear_1_2858)"/>
<path d="M674.033 475.374H644.414V491.228H674.033V475.374Z" fill="#F3EAD8"/>
<path d="M536.873 619.826H616.728V455.797H536.873V619.826Z" fill="#F3EAD8"/>
<path d="M654.791 392.81C657.097 392.973 658.606 390.511 659.216 388.13C659.541 386.801 659.756 385.438 659.861 384.059C660.056 382.717 659.871 381.334 659.335 380.132C658.759 379.033 660.217 378.097 660.793 379.114C661.497 380.454 661.953 381.959 662.131 383.528C662.31 385.097 662.206 386.694 661.827 388.211C661.084 390.974 659.481 393.285 657.351 394.662C657.221 394.758 657.072 394.808 656.919 394.808C656.767 394.808 656.617 394.758 656.487 394.662C655.938 394.865 655.365 394.954 654.791 394.927C653.706 394.764 653.706 392.729 654.791 392.81Z" fill="#3F3F57"/>
<path d="M575.902 380.702C575.96 380.432 576.106 380.201 576.306 380.06C576.506 379.918 576.745 379.878 576.97 379.949C577.195 380.019 577.387 380.193 577.505 380.434C577.622 380.674 577.656 380.961 577.597 381.231C576.881 383.617 576.722 386.193 577.139 388.679C577.32 389.597 577.685 390.447 578.202 391.157C578.719 391.866 579.373 392.413 580.106 392.749C580.331 392.803 580.529 392.962 580.656 393.191C580.783 393.42 580.83 393.701 580.785 393.97C580.74 394.24 580.607 394.478 580.416 394.63C580.226 394.783 579.992 394.838 579.767 394.784C579.739 394.933 579.68 395.072 579.598 395.188C579.515 395.304 579.41 395.395 579.293 395.453C579.175 395.511 579.047 395.534 578.92 395.52C578.793 395.507 578.671 395.457 578.564 395.375C576.788 394.049 575.521 391.935 575.037 389.493C574.662 386.523 574.961 383.486 575.902 380.702Z" fill="#3F3F57"/>
<path d="M522.716 462.472V469.289H602.214V462.472C619.643 452.825 656.265 392.627 656.265 392.627H576.766C576.766 392.627 540.145 452.825 522.716 462.472Z" fill="url(#paint28_linear_1_2858)"/>
<path d="M602.214 462.472H522.716V469.29H602.214V462.472Z" fill="url(#paint29_linear_1_2858)"/>
<path d="M602.216 462.472V469.289C624.167 454.44 642.74 433.341 656.3 407.85C656.3 407.85 680.494 451.523 710.35 469.065V462.472C688.123 448.592 656.249 392.647 656.232 392.627C656.215 392.607 619.645 452.825 602.216 462.472Z" fill="#3F3F57"/>
<path d="M398.255 124.218H321.436V144.691H398.255V124.218Z" stroke="#DA684F" stroke-width="1.95358" stroke-miterlimit="10"/>
<path d="M331.032 124.218H321.436V144.691H331.032V124.218Z" stroke="#DA684F" stroke-width="1.95358" stroke-miterlimit="10"/>
<path d="M340.627 124.218H331.031V144.691H340.627V124.218Z" stroke="#DA684F" stroke-width="1.95358" stroke-miterlimit="10"/>
<path d="M350.224 124.218H340.628V144.691H350.224V124.218Z" stroke="#DA684F" stroke-width="1.95358" stroke-miterlimit="10"/>
<path d="M359.822 124.218H350.226V144.691H359.822V124.218Z" stroke="#DA684F" stroke-width="1.95358" stroke-miterlimit="10"/>
<path d="M369.417 124.218H359.821V144.691H369.417V124.218Z" stroke="#DA684F" stroke-width="1.95358" stroke-miterlimit="10"/>
<path d="M379.012 124.218H369.416V144.691H379.012V124.218Z" stroke="#DA684F" stroke-width="1.95358" stroke-miterlimit="10"/>
<path d="M388.608 124.218H379.012V144.691H388.608V124.218Z" stroke="#DA684F" stroke-width="1.95358" stroke-miterlimit="10"/>
<path d="M322.522 119.802C322.212 119.614 321.868 119.523 321.521 119.537C321.175 119.571 320.843 119.711 320.555 119.945C320.361 120.124 320.189 120.336 320.046 120.575C319.947 120.76 319.867 120.958 319.809 121.166C319.682 121.586 319.682 122.047 319.809 122.468C319.91 122.893 320.11 123.274 320.385 123.567C320.515 123.712 320.664 123.829 320.826 123.913C321.055 124.046 321.302 124.129 321.555 124.157C321.728 124.157 321.896 124.086 322.03 123.954C322.256 123.939 322.477 123.863 322.674 123.73C322.961 123.517 323.196 123.216 323.353 122.859C323.511 122.501 323.587 122.099 323.573 121.695C323.548 121.297 323.438 120.915 323.254 120.583C323.07 120.252 322.818 119.983 322.522 119.802Z" fill="url(#paint30_linear_1_2858)"/>
<path d="M331.93 119.802C331.62 119.614 331.276 119.523 330.93 119.537C330.588 119.568 330.26 119.709 329.98 119.945C329.78 120.123 329.603 120.336 329.455 120.575C329.355 120.76 329.276 120.958 329.217 121.166C329.098 121.588 329.098 122.046 329.217 122.468C329.318 122.893 329.518 123.274 329.794 123.567C329.923 123.712 330.072 123.829 330.234 123.913C330.463 124.046 330.71 124.129 330.963 124.157C331.137 124.157 331.304 124.086 331.438 123.954C331.664 123.939 331.885 123.863 332.082 123.73C332.372 123.52 332.608 123.22 332.767 122.862C332.925 122.503 332.999 122.1 332.981 121.695C332.956 121.297 332.846 120.915 332.662 120.583C332.478 120.252 332.226 119.983 331.93 119.802Z" fill="url(#paint31_linear_1_2858)"/>
<path d="M341.341 119.802C341.032 119.612 340.687 119.521 340.34 119.537C339.999 119.568 339.671 119.709 339.391 119.944C339.193 120.118 339.02 120.332 338.882 120.575C338.771 120.754 338.685 120.953 338.628 121.166C338.518 121.59 338.518 122.044 338.628 122.468C338.729 122.893 338.929 123.274 339.205 123.567C339.337 123.708 339.485 123.824 339.645 123.913C339.875 124.043 340.122 124.126 340.374 124.157C340.553 124.159 340.726 124.087 340.866 123.954C341.087 123.936 341.301 123.86 341.493 123.73C341.783 123.52 342.019 123.22 342.177 122.862C342.336 122.503 342.41 122.1 342.392 121.695C342.37 121.296 342.262 120.912 342.077 120.58C341.893 120.248 341.639 119.979 341.341 119.802Z" fill="url(#paint32_linear_1_2858)"/>
<path d="M350.75 119.802C350.441 119.612 350.096 119.521 349.749 119.537C349.409 119.571 349.081 119.711 348.8 119.945C348.601 120.118 348.429 120.332 348.291 120.575C348.18 120.754 348.094 120.953 348.037 121.166C347.923 121.589 347.917 122.044 348.02 122.472C348.123 122.9 348.329 123.281 348.613 123.567C348.739 123.707 348.882 123.824 349.037 123.913C349.268 124.041 349.514 124.123 349.766 124.157C349.945 124.159 350.118 124.087 350.258 123.954C350.481 123.99 350.707 123.962 350.919 123.872C351.211 123.666 351.45 123.367 351.608 123.007C351.767 122.648 351.839 122.243 351.818 121.837C351.815 121.412 351.714 120.996 351.525 120.637C351.337 120.277 351.068 119.988 350.75 119.802Z" fill="url(#paint33_linear_1_2858)"/>
<path d="M360.734 119.802C360.431 119.614 360.092 119.523 359.751 119.538C359.404 119.567 359.071 119.708 358.784 119.945C358.59 120.124 358.419 120.336 358.276 120.575C358.171 120.756 358.09 120.955 358.038 121.166C357.92 121.588 357.92 122.046 358.038 122.468C358.152 122.891 358.357 123.27 358.632 123.567C358.761 123.712 358.91 123.829 359.073 123.913C359.301 124.046 359.548 124.129 359.802 124.157C359.975 124.158 360.143 124.086 360.276 123.954C360.503 123.939 360.723 123.863 360.921 123.73C361.207 123.517 361.442 123.216 361.6 122.859C361.758 122.501 361.833 122.099 361.819 121.695C361.792 121.293 361.678 120.906 361.488 120.574C361.297 120.242 361.037 119.976 360.734 119.802Z" fill="url(#paint34_linear_1_2858)"/>
<path d="M370.315 119.802C370.005 119.614 369.661 119.523 369.315 119.537C368.969 119.571 368.636 119.711 368.348 119.944C368.154 120.124 367.982 120.336 367.84 120.575C367.74 120.76 367.661 120.958 367.602 121.166C367.475 121.586 367.475 122.047 367.602 122.468C367.703 122.893 367.903 123.274 368.179 123.567C368.308 123.712 368.457 123.829 368.619 123.913C368.848 124.046 369.095 124.129 369.348 124.157C369.522 124.157 369.689 124.086 369.823 123.954C370.049 123.939 370.27 123.863 370.467 123.73C370.757 123.52 370.993 123.22 371.152 122.862C371.31 122.503 371.384 122.1 371.366 121.695C371.341 121.297 371.231 120.915 371.047 120.583C370.863 120.252 370.611 119.983 370.315 119.802Z" fill="url(#paint35_linear_1_2858)"/>
<path d="M380.148 119.802C379.838 119.614 379.494 119.523 379.147 119.537C378.802 119.571 378.469 119.711 378.181 119.945C377.987 120.124 377.815 120.336 377.672 120.575C377.573 120.76 377.494 120.958 377.435 121.166C377.308 121.586 377.308 122.047 377.435 122.468C377.536 122.893 377.736 123.274 378.012 123.567C378.141 123.712 378.29 123.829 378.452 123.913C378.681 124.046 378.928 124.129 379.181 124.157C379.354 124.157 379.522 124.086 379.656 123.954C379.882 123.939 380.103 123.863 380.3 123.73C380.587 123.517 380.822 123.216 380.98 122.859C381.137 122.501 381.213 122.099 381.199 121.695C381.174 121.297 381.064 120.915 380.88 120.583C380.696 120.252 380.444 119.983 380.148 119.802Z" fill="url(#paint36_linear_1_2858)"/>
<path d="M389.508 119.802C389.199 119.614 388.854 119.523 388.508 119.538C388.162 119.571 387.829 119.711 387.541 119.945C387.347 120.124 387.176 120.336 387.033 120.575C386.934 120.76 386.854 120.958 386.795 121.166C386.668 121.586 386.668 122.047 386.795 122.468C386.896 122.893 387.096 123.274 387.372 123.567C387.501 123.712 387.65 123.829 387.813 123.913C388.041 124.046 388.288 124.129 388.542 124.157C388.715 124.158 388.883 124.086 389.016 123.954C389.243 123.939 389.463 123.863 389.661 123.73C389.947 123.517 390.182 123.216 390.34 122.859C390.498 122.501 390.573 122.099 390.559 121.695C390.534 121.297 390.424 120.915 390.24 120.583C390.056 120.252 389.804 119.983 389.508 119.802Z" fill="url(#paint37_linear_1_2858)"/>
<path d="M398.816 119.802C398.506 119.614 398.162 119.523 397.815 119.538C397.469 119.571 397.137 119.711 396.849 119.945C396.655 120.124 396.483 120.336 396.34 120.575C396.241 120.76 396.161 120.958 396.103 121.166C395.976 121.586 395.976 122.047 396.103 122.468C396.204 122.893 396.404 123.274 396.679 123.567C396.809 123.712 396.958 123.829 397.12 123.913C397.349 124.046 397.596 124.129 397.849 124.157C398.022 124.158 398.19 124.086 398.324 123.954C398.55 123.939 398.771 123.863 398.968 123.73C399.258 123.52 399.494 123.22 399.652 122.862C399.811 122.503 399.885 122.1 399.867 121.695C399.842 121.297 399.732 120.915 399.548 120.583C399.364 120.252 399.112 119.983 398.816 119.802Z" fill="url(#paint38_linear_1_2858)"/>
<path d="M398.272 137.507L321.622 136.123V145.241H398.272V137.507Z" fill="url(#paint39_linear_1_2858)"/>
<path d="M476.466 128.207L398.272 124.218V144.712L476.466 144.935V128.207Z" stroke="#DA684F" stroke-width="1.95358" stroke-miterlimit="10"/>
<path d="M409.903 124.808L398.272 124.218V144.712L409.903 144.732V124.808Z" stroke="#DA684F" stroke-width="1.95358" stroke-miterlimit="10"/>
<path d="M420.923 125.378L409.903 124.808V144.732L420.923 144.773V125.378Z" stroke="#DA684F" stroke-width="1.95358" stroke-miterlimit="10"/>
<path d="M431.368 125.908L420.924 125.378V144.773L431.368 144.793V125.908Z" stroke="#DA684F" stroke-width="1.95358" stroke-miterlimit="10"/>
<path d="M441.286 126.416L431.367 125.907V144.793L441.286 144.834V126.416Z" stroke="#DA684F" stroke-width="1.95358" stroke-miterlimit="10"/>
<path d="M450.713 126.884L441.286 126.416V144.834L450.713 144.854V126.884Z" stroke="#DA684F" stroke-width="1.95358" stroke-miterlimit="10"/>
<path d="M459.698 127.352L450.712 126.884V144.854L459.698 144.875V127.352Z" stroke="#DA684F" stroke-width="1.95358" stroke-miterlimit="10"/>
<path d="M468.242 127.78L459.697 127.352V144.874L468.242 144.915V127.78Z" stroke="#DA684F" stroke-width="1.95358" stroke-miterlimit="10"/>
<path d="M410.785 119.802C410.482 119.614 410.143 119.523 409.802 119.538C409.455 119.567 409.122 119.708 408.836 119.945C408.641 120.124 408.47 120.336 408.327 120.575C408.216 120.754 408.13 120.953 408.073 121.166C407.963 121.59 407.963 122.044 408.073 122.468C408.179 122.895 408.385 123.276 408.666 123.567C408.795 123.712 408.944 123.829 409.107 123.913C409.336 124.046 409.583 124.129 409.836 124.157C410.008 124.154 410.175 124.083 410.311 123.954C410.532 123.942 410.747 123.865 410.938 123.73C411.229 123.521 411.468 123.222 411.629 122.864C411.79 122.505 411.868 122.101 411.853 121.695C411.825 121.296 411.712 120.913 411.525 120.581C411.338 120.25 411.083 119.982 410.785 119.802Z" fill="url(#paint40_linear_1_2858)"/>
<path d="M421.805 121.023C421.496 120.833 421.151 120.742 420.804 120.759C420.463 120.789 420.135 120.93 419.855 121.166C419.656 121.339 419.484 121.553 419.346 121.796C419.232 121.973 419.146 122.173 419.092 122.387C418.982 122.811 418.982 123.265 419.092 123.689C419.197 124.112 419.396 124.491 419.668 124.788C419.8 124.929 419.949 125.045 420.109 125.134C420.34 125.262 420.586 125.344 420.838 125.378C421.017 125.38 421.19 125.308 421.33 125.175C421.55 125.157 421.765 125.081 421.957 124.951C422.247 124.741 422.483 124.441 422.641 124.083C422.8 123.724 422.874 123.321 422.856 122.916C422.834 122.517 422.725 122.133 422.541 121.801C422.356 121.469 422.103 121.2 421.805 121.023Z" fill="url(#paint41_linear_1_2858)"/>
<path d="M432.3 122.163C431.994 121.963 431.647 121.872 431.3 121.898C430.957 121.922 430.628 122.064 430.35 122.305C430.152 122.472 429.98 122.678 429.842 122.916C429.734 123.097 429.648 123.296 429.587 123.506C429.477 123.937 429.477 124.398 429.587 124.829C429.768 125.443 430.13 125.957 430.605 126.274C430.836 126.396 431.082 126.471 431.334 126.498C431.512 126.499 431.686 126.427 431.825 126.294C432.046 126.28 432.261 126.203 432.453 126.07C432.746 125.866 432.986 125.567 433.144 125.207C433.303 124.847 433.375 124.441 433.351 124.035C433.328 123.64 433.219 123.259 433.034 122.93C432.85 122.601 432.597 122.337 432.3 122.163Z" fill="url(#paint42_linear_1_2858)"/>
<path d="M442.168 122.773C441.865 122.585 441.526 122.494 441.185 122.509C440.838 122.539 440.504 122.679 440.218 122.916C440.016 123.084 439.843 123.299 439.709 123.547C439.595 123.723 439.509 123.923 439.455 124.137C439.344 124.561 439.344 125.015 439.455 125.439C439.56 125.867 439.766 126.249 440.049 126.538C440.174 126.679 440.317 126.795 440.472 126.884C440.708 127.015 440.96 127.098 441.218 127.129C441.391 127.126 441.558 127.054 441.693 126.925C441.914 126.911 442.129 126.834 442.32 126.701C442.612 126.495 442.851 126.195 443.01 125.836C443.168 125.477 443.241 125.072 443.219 124.666C443.197 124.268 443.089 123.883 442.904 123.551C442.72 123.219 442.466 122.951 442.168 122.773Z" fill="url(#paint43_linear_1_2858)"/>
<path d="M451.595 122.773C451.292 122.585 450.953 122.494 450.612 122.509C450.265 122.539 449.932 122.679 449.646 122.916C449.447 123.09 449.275 123.303 449.137 123.547C449.028 123.724 448.948 123.924 448.9 124.137C448.781 124.559 448.781 125.017 448.9 125.439C449.011 125.863 449.216 126.243 449.493 126.538C449.622 126.683 449.771 126.801 449.934 126.884C450.163 127.018 450.41 127.1 450.663 127.129C450.836 127.129 451.004 127.057 451.138 126.925C451.364 126.911 451.584 126.834 451.782 126.701C452.069 126.488 452.303 126.188 452.461 125.83C452.619 125.472 452.695 125.071 452.68 124.666C452.654 124.264 452.539 123.878 452.349 123.545C452.159 123.213 451.899 122.947 451.595 122.773Z" fill="url(#paint44_linear_1_2858)"/>
<path d="M460.58 123.343C460.274 123.144 459.928 123.052 459.58 123.079C459.237 123.095 458.906 123.237 458.631 123.486C458.429 123.646 458.256 123.854 458.122 124.096C458.014 124.277 457.929 124.476 457.868 124.686C457.739 125.215 457.769 125.781 457.952 126.287C458.134 126.792 458.458 127.205 458.868 127.454C459.099 127.578 459.345 127.654 459.597 127.678C459.776 127.68 459.949 127.608 460.089 127.474C460.309 127.457 460.524 127.381 460.716 127.25C461.007 127.042 461.244 126.743 461.403 126.384C461.561 126.025 461.634 125.621 461.615 125.215C461.593 124.822 461.487 124.442 461.305 124.114C461.124 123.785 460.874 123.52 460.58 123.343Z" fill="url(#paint45_linear_1_2858)"/>
<path d="M469.141 123.343C468.834 123.146 468.488 123.054 468.14 123.079C467.793 123.102 467.458 123.243 467.174 123.486C466.976 123.652 466.804 123.859 466.665 124.096C466.569 124.282 466.49 124.48 466.428 124.686C466.305 125.115 466.305 125.58 466.428 126.009C466.529 126.428 466.73 126.803 467.004 127.088C467.133 127.239 467.282 127.363 467.445 127.454C467.675 127.581 467.922 127.656 468.174 127.678C468.347 127.678 468.515 127.606 468.649 127.474C468.875 127.46 469.096 127.384 469.293 127.251C469.584 127.043 469.821 126.743 469.98 126.384C470.138 126.025 470.212 125.621 470.192 125.215C470.165 124.821 470.055 124.442 469.871 124.114C469.687 123.786 469.435 123.52 469.141 123.343Z" fill="url(#paint46_linear_1_2858)"/>
<path d="M477.347 123.343C477.046 123.146 476.705 123.055 476.364 123.079C476.07 123.105 475.785 123.21 475.53 123.386C475.274 123.562 475.055 123.805 474.889 124.096C474.781 124.277 474.695 124.476 474.634 124.686C474.524 125.117 474.524 125.578 474.634 126.009C474.815 126.624 475.177 127.138 475.651 127.454C475.888 127.578 476.14 127.654 476.397 127.678C476.57 127.675 476.737 127.604 476.872 127.475C477.093 127.46 477.308 127.383 477.5 127.251C477.793 127.046 478.032 126.747 478.191 126.387C478.35 126.028 478.422 125.622 478.398 125.216C478.375 124.82 478.266 124.439 478.081 124.11C477.897 123.782 477.644 123.517 477.347 123.343Z" fill="url(#paint47_linear_1_2858)"/>
<path d="M398.002 137.507L476.466 138.627V145.241H398.002V137.507Z" fill="url(#paint48_linear_1_2858)"/>
<g style="mix-blend-mode:multiply" opacity="0.65">
<path d="M476.466 128.207L398.273 124.218V144.712L476.466 144.935V128.207Z" stroke="#DA684F" stroke-width="1.95358" stroke-miterlimit="10"/>
<path d="M409.904 124.808L398.273 124.218V144.712L409.904 144.732V124.808Z" stroke="#DA684F" stroke-width="1.95358" stroke-miterlimit="10"/>
<path d="M420.923 125.378L409.902 124.808V144.732L420.923 144.773V125.378Z" stroke="#DA684F" stroke-width="1.95358" stroke-miterlimit="10"/>
<path d="M431.367 125.907L420.923 125.378V144.773L431.367 144.793V125.907Z" stroke="#DA684F" stroke-width="1.95358" stroke-miterlimit="10"/>
<path d="M441.285 126.416L431.367 125.907V144.793L441.285 144.834V126.416Z" stroke="#DA684F" stroke-width="1.95358" stroke-miterlimit="10"/>
<path d="M450.713 126.884L441.286 126.416V144.834L450.713 144.854V126.884Z" stroke="#DA684F" stroke-width="1.95358" stroke-miterlimit="10"/>
<path d="M459.698 127.352L450.712 126.884V144.854L459.698 144.874V127.352Z" stroke="#DA684F" stroke-width="1.95358" stroke-miterlimit="10"/>
<path d="M468.242 127.78L459.697 127.352V144.874L468.242 144.915V127.78Z" stroke="#DA684F" stroke-width="1.95358" stroke-miterlimit="10"/>
<path d="M410.784 119.802C410.481 119.614 410.142 119.523 409.801 119.537C409.454 119.567 409.121 119.708 408.834 119.944C408.64 120.124 408.469 120.336 408.326 120.575C408.215 120.754 408.129 120.953 408.071 121.166C407.962 121.59 407.962 122.044 408.071 122.468C408.178 122.895 408.384 123.276 408.665 123.567C408.794 123.712 408.943 123.829 409.106 123.913C409.335 124.046 409.581 124.129 409.835 124.157C410.007 124.154 410.174 124.083 410.309 123.954C410.531 123.942 410.746 123.865 410.937 123.73C411.228 123.521 411.467 123.222 411.628 122.864C411.789 122.505 411.867 122.101 411.852 121.695C411.824 121.296 411.711 120.912 411.524 120.581C411.337 120.25 411.082 119.982 410.784 119.802Z" fill="url(#paint49_linear_1_2858)"/>
<path d="M421.805 121.023C421.496 120.833 421.151 120.742 420.804 120.759C420.463 120.789 420.135 120.93 419.855 121.166C419.656 121.339 419.484 121.553 419.346 121.796C419.232 121.973 419.146 122.173 419.092 122.387C418.982 122.811 418.982 123.265 419.092 123.689C419.197 124.112 419.397 124.491 419.668 124.788C419.8 124.929 419.949 125.045 420.109 125.134C420.34 125.262 420.586 125.344 420.838 125.378C421.017 125.38 421.19 125.308 421.33 125.175C421.55 125.157 421.765 125.081 421.957 124.951C422.247 124.741 422.483 124.441 422.641 124.083C422.8 123.724 422.874 123.321 422.856 122.916C422.834 122.517 422.725 122.133 422.541 121.801C422.357 121.469 422.103 121.2 421.805 121.023Z" fill="url(#paint50_linear_1_2858)"/>
<path d="M432.299 122.163C431.993 121.963 431.646 121.872 431.299 121.898C430.956 121.922 430.627 122.064 430.349 122.305C430.151 122.472 429.979 122.678 429.841 122.916C429.733 123.097 429.647 123.296 429.586 123.506C429.476 123.937 429.476 124.398 429.586 124.829C429.767 125.444 430.129 125.958 430.604 126.274C430.835 126.396 431.081 126.471 431.333 126.498C431.511 126.499 431.685 126.427 431.824 126.294C432.045 126.28 432.26 126.203 432.452 126.07C432.745 125.866 432.985 125.567 433.143 125.207C433.302 124.847 433.374 124.441 433.35 124.035C433.327 123.64 433.218 123.259 433.033 122.93C432.849 122.601 432.596 122.337 432.299 122.163Z" fill="url(#paint51_linear_1_2858)"/>
<path d="M442.168 122.773C441.864 122.585 441.526 122.494 441.184 122.509C440.838 122.539 440.504 122.679 440.218 122.916C440.016 123.084 439.843 123.298 439.709 123.547C439.595 123.723 439.509 123.923 439.455 124.137C439.344 124.561 439.344 125.015 439.455 125.439C439.56 125.867 439.766 126.249 440.049 126.538C440.174 126.679 440.317 126.795 440.472 126.884C440.708 127.015 440.96 127.098 441.218 127.128C441.391 127.125 441.558 127.054 441.693 126.925C441.914 126.91 442.129 126.834 442.32 126.701C442.612 126.495 442.851 126.195 443.01 125.836C443.168 125.477 443.241 125.072 443.219 124.666C443.197 124.268 443.089 123.883 442.904 123.551C442.72 123.219 442.466 122.951 442.168 122.773Z" fill="url(#paint52_linear_1_2858)"/>
<path d="M451.594 122.773C451.291 122.585 450.952 122.494 450.611 122.509C450.264 122.539 449.931 122.679 449.645 122.916C449.446 123.09 449.274 123.303 449.136 123.547C449.027 123.724 448.946 123.924 448.899 124.137C448.78 124.559 448.78 125.017 448.899 125.439C449.01 125.863 449.215 126.243 449.492 126.538C449.621 126.683 449.77 126.8 449.933 126.884C450.162 127.017 450.409 127.1 450.662 127.128C450.835 127.129 451.003 127.057 451.137 126.925C451.363 126.911 451.583 126.834 451.781 126.701C452.068 126.488 452.302 126.187 452.46 125.83C452.618 125.472 452.694 125.07 452.679 124.666C452.653 124.264 452.538 123.877 452.348 123.545C452.157 123.213 451.898 122.947 451.594 122.773Z" fill="url(#paint53_linear_1_2858)"/>
<path d="M460.58 123.343C460.274 123.144 459.927 123.052 459.579 123.079C459.236 123.095 458.905 123.237 458.63 123.486C458.428 123.646 458.255 123.854 458.121 124.096C458.013 124.277 457.928 124.476 457.867 124.686C457.738 125.215 457.768 125.781 457.951 126.287C458.133 126.792 458.458 127.205 458.867 127.454C459.098 127.578 459.344 127.654 459.596 127.678C459.775 127.68 459.948 127.608 460.088 127.474C460.308 127.457 460.523 127.381 460.715 127.25C461.006 127.042 461.243 126.743 461.402 126.384C461.56 126.025 461.634 125.621 461.614 125.215C461.592 124.822 461.486 124.442 461.304 124.114C461.123 123.785 460.873 123.52 460.58 123.343Z" fill="url(#paint54_linear_1_2858)"/>
<path d="M469.141 123.343C468.834 123.146 468.488 123.054 468.14 123.078C467.793 123.102 467.458 123.243 467.174 123.485C466.976 123.652 466.804 123.858 466.665 124.096C466.569 124.282 466.49 124.48 466.428 124.686C466.305 125.115 466.305 125.58 466.428 126.009C466.529 126.428 466.73 126.802 467.004 127.088C467.133 127.239 467.282 127.363 467.445 127.454C467.675 127.581 467.922 127.656 468.174 127.678C468.347 127.678 468.515 127.606 468.649 127.474C468.875 127.46 469.096 127.383 469.293 127.25C469.584 127.042 469.821 126.743 469.98 126.384C470.138 126.025 470.212 125.621 470.192 125.215C470.166 124.821 470.055 124.442 469.871 124.114C469.687 123.786 469.435 123.52 469.141 123.343Z" fill="url(#paint55_linear_1_2858)"/>
<path d="M477.347 123.343C477.046 123.146 476.705 123.054 476.364 123.078C476.07 123.105 475.785 123.21 475.53 123.386C475.274 123.562 475.055 123.805 474.889 124.096C474.781 124.277 474.695 124.476 474.634 124.686C474.524 125.117 474.524 125.578 474.634 126.009C474.815 126.624 475.177 127.138 475.651 127.454C475.888 127.578 476.14 127.654 476.397 127.678C476.57 127.675 476.737 127.603 476.872 127.474C477.093 127.46 477.308 127.383 477.5 127.25C477.793 127.046 478.032 126.747 478.191 126.387C478.35 126.027 478.422 125.621 478.398 125.215C478.375 124.82 478.266 124.439 478.081 124.11C477.897 123.781 477.644 123.517 477.347 123.343Z" fill="url(#paint56_linear_1_2858)"/>
<path d="M398.001 137.507L476.465 138.627V145.241H398.001V137.507Z" fill="url(#paint57_linear_1_2858)"/>
</g>
<path d="M392.932 738.329L0 700.415L37.8419 597.786L392.932 619.317V738.329Z" fill="#634C46"/>
<path d="M392.728 738.329L728.964 699.663L700.142 597.786L392.728 619.317V738.329Z" fill="#634C46"/>
<g style="mix-blend-mode:multiply" opacity="0.26">
<path d="M392.728 738.329L728.964 699.663L700.142 597.786L392.728 619.317V738.329Z" fill="#634C46"/>
</g>
</g>
<defs>
<linearGradient id="paint0_linear_1_2858" x1="365.807" y1="136.673" x2="371.873" y2="72.6405" gradientUnits="userSpaceOnUse">
<stop stop-color="white"/>
<stop offset="0.31" stop-color="#FDFCF9"/>
<stop offset="0.7" stop-color="#F8F3E9"/>
<stop offset="1" stop-color="#F3EAD8"/>
</linearGradient>
<linearGradient id="paint1_linear_1_2858" x1="406.072" y1="32.5777" x2="401.228" y2="77.6599" gradientUnits="userSpaceOnUse">
<stop stop-color="#848EDF"/>
<stop offset="1" stop-color="#B4BAEC"/>
</linearGradient>
<linearGradient id="paint2_linear_1_2858" x1="337.746" y1="51.3005" x2="389.88" y2="51.3005" gradientUnits="userSpaceOnUse">
<stop stop-color="white"/>
<stop offset="1" stop-color="#F3EAD8"/>
</linearGradient>
<linearGradient id="paint3_linear_1_2858" x1="422.313" y1="13.3869" x2="442.034" y2="77.8347" gradientUnits="userSpaceOnUse">
<stop stop-color="#848EDF"/>
<stop offset="1" stop-color="#B4BAEC"/>
</linearGradient>
<linearGradient id="paint4_linear_1_2858" x1="334.557" y1="139.665" x2="332.947" y2="166.641" gradientUnits="userSpaceOnUse">
<stop stop-color="#848EDF"/>
<stop offset="1" stop-color="#B4BAEC"/>
</linearGradient>
<linearGradient id="paint5_linear_1_2858" x1="268.334" y1="178.413" x2="384.216" y2="178.413" gradientUnits="userSpaceOnUse">
<stop stop-color="#848EDF"/>
<stop offset="1" stop-color="#B4BAEC"/>
</linearGradient>
<linearGradient id="paint6_linear_1_2858" x1="335.508" y1="218.403" x2="335.117" y2="165.063" gradientUnits="userSpaceOnUse">
<stop stop-color="white"/>
<stop offset="1" stop-color="#F3EAD8"/>
</linearGradient>
<linearGradient id="paint7_linear_1_2858" x1="311.5" y1="289.244" x2="311.5" y2="245.347" gradientUnits="userSpaceOnUse">
<stop stop-color="white"/>
<stop offset="1" stop-color="#F3EAD8"/>
</linearGradient>
<linearGradient id="paint8_linear_1_2858" x1="282.018" y1="353.025" x2="282.018" y2="323.414" gradientUnits="userSpaceOnUse">
<stop stop-color="white"/>
<stop offset="1" stop-color="#F3EAD8"/>
</linearGradient>
<linearGradient id="paint9_linear_1_2858" x1="267.844" y1="429.992" x2="267.844" y2="411.045" gradientUnits="userSpaceOnUse">
<stop stop-color="white"/>
<stop offset="1" stop-color="#F3EAD8"/>
</linearGradient>
<linearGradient id="paint10_linear_1_2858" x1="301.259" y1="209.672" x2="300.453" y2="237.362" gradientUnits="userSpaceOnUse">
<stop stop-color="#848EDF"/>
<stop offset="1" stop-color="#B4BAEC"/>
</linearGradient>
<linearGradient id="paint11_linear_1_2858" x1="395.763" y1="237.838" x2="414.905" y2="237.838" gradientUnits="userSpaceOnUse">
<stop stop-color="#848EDF"/>
<stop offset="1" stop-color="#B4BAEC"/>
</linearGradient>
<linearGradient id="paint12_linear_1_2858" x1="205.603" y1="255.726" x2="378.249" y2="255.726" gradientUnits="userSpaceOnUse">
<stop stop-color="#848EDF"/>
<stop offset="1" stop-color="#B4BAEC"/>
</linearGradient>
<linearGradient id="paint13_linear_1_2858" x1="279.068" y1="286.11" x2="278.262" y2="317.16" gradientUnits="userSpaceOnUse">
<stop stop-color="#848EDF"/>
<stop offset="1" stop-color="#B4BAEC"/>
</linearGradient>
<linearGradient id="paint14_linear_1_2858" x1="389.168" y1="311.671" x2="408.309" y2="311.671" gradientUnits="userSpaceOnUse">
<stop stop-color="#848EDF"/>
<stop offset="1" stop-color="#B4BAEC"/>
</linearGradient>
<linearGradient id="paint15_linear_1_2858" x1="253.603" y1="342.869" x2="249.556" y2="394.749" gradientUnits="userSpaceOnUse">
<stop stop-color="#848EDF"/>
<stop offset="1" stop-color="#B4BAEC"/>
</linearGradient>
<linearGradient id="paint16_linear_1_2858" x1="389.168" y1="390.938" x2="408.309" y2="390.938" gradientUnits="userSpaceOnUse">
<stop stop-color="#848EDF"/>
<stop offset="1" stop-color="#B4BAEC"/>
</linearGradient>
<linearGradient id="paint17_linear_1_2858" x1="529.549" y1="295.96" x2="529.549" y2="250.781" gradientUnits="userSpaceOnUse">
<stop stop-color="white"/>
<stop offset="1" stop-color="#F3EAD8"/>
</linearGradient>
<linearGradient id="paint18_linear_1_2858" x1="506.372" y1="208.084" x2="469.331" y2="267.329" gradientUnits="userSpaceOnUse">
<stop stop-color="#848EDF"/>
<stop offset="1" stop-color="#B4BAEC"/>
</linearGradient>
<linearGradient id="paint19_linear_1_2858" x1="464.275" y1="276.952" x2="468.367" y2="290.351" gradientUnits="userSpaceOnUse">
<stop stop-color="#848EDF"/>
<stop offset="1" stop-color="#B4BAEC"/>
</linearGradient>
<linearGradient id="paint20_linear_1_2858" x1="227.426" y1="356.83" x2="227.426" y2="327.036" gradientUnits="userSpaceOnUse">
<stop stop-color="white"/>
<stop offset="1" stop-color="#F3EAD8"/>
</linearGradient>
<linearGradient id="paint21_linear_1_2858" x1="190.872" y1="336.072" x2="263.962" y2="336.072" gradientUnits="userSpaceOnUse">
<stop stop-color="#848EDF"/>
<stop offset="1" stop-color="#B4BAEC"/>
</linearGradient>
<linearGradient id="paint22_linear_1_2858" x1="297.954" y1="346.308" x2="293.931" y2="398.21" gradientUnits="userSpaceOnUse">
<stop stop-color="#848EDF"/>
<stop offset="1" stop-color="#B4BAEC"/>
</linearGradient>
<linearGradient id="paint23_linear_1_2858" x1="376.334" y1="492.449" x2="376.334" y2="465.097" gradientUnits="userSpaceOnUse">
<stop stop-color="white"/>
<stop offset="1" stop-color="#F3EAD8"/>
</linearGradient>
<linearGradient id="paint24_linear_1_2858" x1="126.987" y1="458.361" x2="625.663" y2="458.361" gradientUnits="userSpaceOnUse">
<stop stop-color="#848EDF"/>
<stop offset="1" stop-color="#B4BAEC"/>
</linearGradient>
<linearGradient id="paint25_linear_1_2858" x1="72.8867" y1="472.526" x2="72.8867" y2="420.834" gradientUnits="userSpaceOnUse">
<stop stop-color="white"/>
<stop offset="1" stop-color="#F3EAD8"/>
</linearGradient>
<linearGradient id="paint26_linear_1_2858" x1="18.8027" y1="430.968" x2="126.971" y2="430.968" gradientUnits="userSpaceOnUse">
<stop stop-color="#848EDF"/>
<stop offset="1" stop-color="#B4BAEC"/>
</linearGradient>
<linearGradient id="paint27_linear_1_2858" x1="656.299" y1="476.25" x2="656.299" y2="423.418" gradientUnits="userSpaceOnUse">
<stop stop-color="white"/>
<stop offset="1" stop-color="#F3EAD8"/>
</linearGradient>
<linearGradient id="paint28_linear_1_2858" x1="628.053" y1="364.624" x2="575.399" y2="424.262" gradientUnits="userSpaceOnUse">
<stop stop-color="#848EDF"/>
<stop offset="1" stop-color="#B4BAEC"/>
</linearGradient>
<linearGradient id="paint29_linear_1_2858" x1="623.577" y1="443.525" x2="479.568" y2="480.098" gradientUnits="userSpaceOnUse">
<stop stop-color="#848EDF"/>
<stop offset="1" stop-color="#B4BAEC"/>
</linearGradient>
<linearGradient id="paint30_linear_1_2858" x1="319.707" y1="121.878" x2="323.556" y2="121.878" gradientUnits="userSpaceOnUse">
<stop offset="0.01" stop-color="#CE3412"/>
<stop offset="1" stop-color="#DA684F"/>
</linearGradient>
<linearGradient id="paint31_linear_1_2858" x1="329.115" y1="121.878" x2="332.964" y2="121.878" gradientUnits="userSpaceOnUse">
<stop offset="0.01" stop-color="#CE3412"/>
<stop offset="1" stop-color="#DA684F"/>
</linearGradient>
<linearGradient id="paint32_linear_1_2858" x1="338.526" y1="121.878" x2="342.375" y2="121.878" gradientUnits="userSpaceOnUse">
<stop offset="0.01" stop-color="#CE3412"/>
<stop offset="1" stop-color="#DA684F"/>
</linearGradient>
<linearGradient id="paint33_linear_1_2858" x1="347.952" y1="121.878" x2="351.801" y2="121.878" gradientUnits="userSpaceOnUse">
<stop offset="0.01" stop-color="#CE3412"/>
<stop offset="1" stop-color="#DA684F"/>
</linearGradient>
<linearGradient id="paint34_linear_1_2858" x1="357.937" y1="121.878" x2="361.785" y2="121.878" gradientUnits="userSpaceOnUse">
<stop offset="0.01" stop-color="#CE3412"/>
<stop offset="1" stop-color="#DA684F"/>
</linearGradient>
<linearGradient id="paint35_linear_1_2858" x1="367.5" y1="121.878" x2="371.349" y2="121.878" gradientUnits="userSpaceOnUse">
<stop offset="0.01" stop-color="#CE3412"/>
<stop offset="1" stop-color="#DA684F"/>
</linearGradient>
<linearGradient id="paint36_linear_1_2858" x1="377.333" y1="121.878" x2="381.182" y2="121.878" gradientUnits="userSpaceOnUse">
<stop offset="0.01" stop-color="#CE3412"/>
<stop offset="1" stop-color="#DA684F"/>
</linearGradient>
<linearGradient id="paint37_linear_1_2858" x1="386.694" y1="121.878" x2="390.542" y2="121.878" gradientUnits="userSpaceOnUse">
<stop offset="0.01" stop-color="#CE3412"/>
<stop offset="1" stop-color="#DA684F"/>
</linearGradient>
<linearGradient id="paint38_linear_1_2858" x1="396.001" y1="121.878" x2="399.85" y2="121.878" gradientUnits="userSpaceOnUse">
<stop offset="0.01" stop-color="#CE3412"/>
<stop offset="1" stop-color="#DA684F"/>
</linearGradient>
<linearGradient id="paint39_linear_1_2858" x1="321.622" y1="140.682" x2="398.272" y2="140.682" gradientUnits="userSpaceOnUse">
<stop offset="0.01" stop-color="#CE3412"/>
<stop offset="1" stop-color="#DA684F"/>
</linearGradient>
<linearGradient id="paint40_linear_1_2858" x1="407.988" y1="121.878" x2="411.836" y2="121.878" gradientUnits="userSpaceOnUse">
<stop offset="0.01" stop-color="#CE3412"/>
<stop offset="1" stop-color="#DA684F"/>
</linearGradient>
<linearGradient id="paint41_linear_1_2858" x1="418.99" y1="123.058" x2="422.839" y2="123.058" gradientUnits="userSpaceOnUse">
<stop offset="0.01" stop-color="#CE3412"/>
<stop offset="1" stop-color="#DA684F"/>
</linearGradient>
<linearGradient id="paint42_linear_1_2858" x1="429.452" y1="124.198" x2="433.283" y2="124.198" gradientUnits="userSpaceOnUse">
<stop offset="0.01" stop-color="#CE3412"/>
<stop offset="1" stop-color="#DA684F"/>
</linearGradient>
<linearGradient id="paint43_linear_1_2858" x1="439.37" y1="124.809" x2="443.219" y2="124.809" gradientUnits="userSpaceOnUse">
<stop offset="0.01" stop-color="#CE3412"/>
<stop offset="1" stop-color="#DA684F"/>
</linearGradient>
<linearGradient id="paint44_linear_1_2858" x1="448.798" y1="124.809" x2="452.647" y2="124.809" gradientUnits="userSpaceOnUse">
<stop offset="0.01" stop-color="#CE3412"/>
<stop offset="1" stop-color="#DA684F"/>
</linearGradient>
<linearGradient id="paint45_linear_1_2858" x1="457.766" y1="125.378" x2="461.615" y2="125.378" gradientUnits="userSpaceOnUse">
<stop offset="0.01" stop-color="#CE3412"/>
<stop offset="1" stop-color="#DA684F"/>
</linearGradient>
<linearGradient id="paint46_linear_1_2858" x1="466.326" y1="125.378" x2="470.175" y2="125.378" gradientUnits="userSpaceOnUse">
<stop offset="0.01" stop-color="#CE3412"/>
<stop offset="1" stop-color="#DA684F"/>
</linearGradient>
<linearGradient id="paint47_linear_1_2858" x1="474.549" y1="125.378" x2="478.398" y2="125.378" gradientUnits="userSpaceOnUse">
<stop offset="0.01" stop-color="#CE3412"/>
<stop offset="1" stop-color="#DA684F"/>
</linearGradient>
<linearGradient id="paint48_linear_1_2858" x1="398.002" y1="141.374" x2="476.466" y2="141.374" gradientUnits="userSpaceOnUse">
<stop offset="0.01" stop-color="#CE3412"/>
<stop offset="1" stop-color="#DA684F"/>
</linearGradient>
<linearGradient id="paint49_linear_1_2858" x1="407.987" y1="121.878" x2="411.835" y2="121.878" gradientUnits="userSpaceOnUse">
<stop offset="0.01" stop-color="#CE3412"/>
<stop offset="1" stop-color="#DA684F"/>
</linearGradient>
<linearGradient id="paint50_linear_1_2858" x1="418.99" y1="123.058" x2="422.839" y2="123.058" gradientUnits="userSpaceOnUse">
<stop offset="0.01" stop-color="#CE3412"/>
<stop offset="1" stop-color="#DA684F"/>
</linearGradient>
<linearGradient id="paint51_linear_1_2858" x1="429.451" y1="124.198" x2="433.282" y2="124.198" gradientUnits="userSpaceOnUse">
<stop offset="0.01" stop-color="#CE3412"/>
<stop offset="1" stop-color="#DA684F"/>
</linearGradient>
<linearGradient id="paint52_linear_1_2858" x1="439.37" y1="124.808" x2="443.219" y2="124.808" gradientUnits="userSpaceOnUse">
<stop offset="0.01" stop-color="#CE3412"/>
<stop offset="1" stop-color="#DA684F"/>
</linearGradient>
<linearGradient id="paint53_linear_1_2858" x1="448.797" y1="124.808" x2="452.646" y2="124.808" gradientUnits="userSpaceOnUse">
<stop offset="0.01" stop-color="#CE3412"/>
<stop offset="1" stop-color="#DA684F"/>
</linearGradient>
<linearGradient id="paint54_linear_1_2858" x1="457.765" y1="125.378" x2="461.614" y2="125.378" gradientUnits="userSpaceOnUse">
<stop offset="0.01" stop-color="#CE3412"/>
<stop offset="1" stop-color="#DA684F"/>
</linearGradient>
<linearGradient id="paint55_linear_1_2858" x1="466.326" y1="125.378" x2="470.175" y2="125.378" gradientUnits="userSpaceOnUse">
<stop offset="0.01" stop-color="#CE3412"/>
<stop offset="1" stop-color="#DA684F"/>
</linearGradient>
<linearGradient id="paint56_linear_1_2858" x1="474.549" y1="125.378" x2="478.398" y2="125.378" gradientUnits="userSpaceOnUse">
<stop offset="0.01" stop-color="#CE3412"/>
<stop offset="1" stop-color="#DA684F"/>
</linearGradient>
<linearGradient id="paint57_linear_1_2858" x1="398.001" y1="141.374" x2="476.465" y2="141.374" gradientUnits="userSpaceOnUse">
<stop offset="0.01" stop-color="#CE3412"/>
<stop offset="1" stop-color="#DA684F"/>
</linearGradient>
<clipPath id="clip0_1_2858">
<rect width="729" height="699" fill="white"/>
</clipPath>
</defs>
</svg>
